<svg width="56" height="57" viewBox="0 0 56 57" fill="none" xmlns="http://www.w3.org/2000/svg">
<rect y="0.5" width="56" height="56" rx="28" fill="#502F5A"/>
<path d="M43.8051 23.387C43.3785 22.1256 42.3533 21.3307 41.4487 20.6288C40.9653 20.2542 40.5088 19.9 40.245 19.553C39.9761 19.1988 39.7636 18.6701 39.539 18.1099C39.1231 17.074 38.6508 15.9005 37.5582 15.1382C36.4888 14.3909 35.1998 14.3215 34.0625 14.2617C33.4234 14.2271 32.8195 14.1949 32.3596 14.0512C31.9383 13.9207 31.4516 13.6169 30.9367 13.295C29.9659 12.6887 28.8652 12.002 27.4994 12.002C26.1329 12.002 25.0335 12.6887 24.0634 13.295C23.5478 13.6169 23.0618 13.92 22.6398 14.0519C22.1806 14.1949 21.5761 14.2271 20.9363 14.2617C19.7997 14.3228 18.5114 14.3909 17.4406 15.1382C16.3486 15.9005 15.877 17.074 15.4604 18.1092C15.2359 18.6695 15.0227 19.1988 14.7532 19.5543C14.4893 19.9021 14.0328 20.2562 13.5488 20.6308C12.6461 21.332 11.621 22.1262 11.195 23.3864C10.7798 24.6112 11.1131 25.8207 11.4071 26.8874C11.571 27.4816 11.7257 28.0418 11.7257 28.501C11.7257 28.9609 11.571 29.5211 11.4071 30.116C11.1131 31.1821 10.7804 32.3912 11.195 33.617C11.6216 34.8772 12.6461 35.671 13.5501 36.3723C14.0335 36.7472 14.49 37.101 14.7538 37.4481C15.0227 37.8029 15.2352 38.3316 15.4604 38.8925C15.8763 39.9287 16.3493 41.1023 17.4426 41.8659C18.512 42.6118 19.7997 42.6806 20.9363 42.7403C21.5761 42.7746 22.1806 42.8071 22.6398 42.9501C23.0611 43.0814 23.5472 43.3852 24.0614 43.7068C25.0322 44.3133 26.1329 45.0001 27.4994 45.0001C28.8659 45.0001 29.9673 44.3133 30.938 43.7068C31.453 43.3852 31.939 43.0821 32.3603 42.9501C32.8195 42.8071 33.424 42.7746 34.0638 42.7403C35.2004 42.6799 36.4881 42.6111 37.5582 41.8652C38.6515 41.1023 39.1231 39.9274 39.5404 38.8905C39.7649 38.3309 39.9774 37.8016 40.245 37.4491C40.5088 37.101 40.9653 36.7472 41.4487 36.3729C42.3527 35.6717 43.3785 34.8772 43.8051 33.617C44.2203 32.3912 43.8863 31.1821 43.5923 30.115C43.4278 29.5211 43.2731 28.9596 43.2731 28.5004C43.2731 28.0412 43.4278 27.4799 43.5923 26.8861C43.8863 25.8207 44.2197 24.6106 43.8051 23.387ZM40.9415 30.8467C41.1392 31.5657 41.345 32.3096 41.2006 32.7349C41.0395 33.2116 40.3913 33.7141 39.7643 34.2001C39.1614 34.6674 38.5387 35.1501 38.0547 35.7875C37.5639 36.4344 37.2709 37.1624 36.9886 37.8657C36.6881 38.6115 36.4048 39.3161 35.9839 39.6102C35.5586 39.9079 34.7617 39.9499 33.9175 39.9952C33.1367 40.0372 32.3294 40.0798 31.5429 40.3252C30.7833 40.5618 30.122 40.9744 29.4819 41.3738C28.7602 41.8246 28.0788 42.2503 27.4994 42.2503C26.9207 42.2503 26.2393 41.8246 25.5182 41.3752C24.8781 40.9757 24.2168 40.5618 23.4572 40.3258C22.67 40.0805 21.8634 40.0372 21.0826 39.9959C20.2384 39.9512 19.4415 39.9086 19.0169 39.6119C18.5953 39.3175 18.3123 38.6129 18.0119 37.867C17.7286 37.1638 17.4355 36.435 16.9434 35.7875C16.4607 35.1507 15.8381 34.6674 15.2352 34.2001C14.6088 33.7147 13.9606 33.2116 13.7995 32.7356C13.6552 32.3096 13.8603 31.5657 14.058 30.8457C14.2533 30.1371 14.4749 29.3328 14.4749 28.5017C14.4749 27.6706 14.2533 26.867 14.058 26.1574C13.8603 25.4383 13.6552 24.6952 13.7995 24.2682C13.9606 23.7925 14.6081 23.29 15.2345 22.8046C15.8374 22.3364 16.4614 21.8527 16.9434 21.2166C17.4355 20.5684 17.7292 19.8396 18.0126 19.1357C18.3123 18.3905 18.5953 17.6866 19.0149 17.3936C19.4415 17.0951 20.2391 17.0525 21.0833 17.0072C21.8634 16.9652 22.67 16.9219 23.4565 16.6779C24.2168 16.4416 24.8788 16.0277 25.5196 15.6282C26.2406 15.1764 26.9214 14.7518 27.4994 14.7518C28.0781 14.7518 28.7588 15.1764 29.4805 15.6269C30.1213 16.027 30.7833 16.4409 31.5429 16.6759C32.3301 16.9206 33.136 16.9646 33.9161 17.0059C34.7604 17.0505 35.5579 17.0931 35.9839 17.3922C36.4048 17.6859 36.6871 18.3892 36.9869 19.1344C37.2702 19.8383 37.5632 20.567 38.0553 21.2152C38.5387 21.851 39.1614 22.3344 39.7643 22.8019C40.3906 23.2873 41.0388 23.7905 41.2006 24.2675C41.345 24.6931 41.1392 25.4363 40.9415 26.1553C40.7454 26.865 40.5232 27.6692 40.5232 28.501C40.5232 29.3328 40.7454 30.1371 40.9415 30.8467Z" fill="white"/>
<path d="M33.6865 28.501C33.6865 31.9128 30.9112 34.6881 27.4994 34.6881C24.0876 34.6881 21.3123 31.9128 21.3123 28.501C21.3123 25.0892 24.0876 22.3138 27.4994 22.3138H28.8743V19.564H27.4994C22.5717 19.564 18.5624 23.5733 18.5624 28.501C18.5624 33.4287 22.5717 37.438 27.4994 37.438C32.4271 37.438 36.4364 33.4287 36.4364 28.501V27.126H33.6865V28.501Z" fill="white"/>
<path d="M26.1245 25.1819L24.1803 27.1261L27.4994 30.4449L34.9433 23.0014L32.9991 21.0571L27.4994 26.5568L26.1245 25.1819Z" fill="white"/>
</svg>
