<svg width="33" height="34" viewBox="0 0 33 34" fill="none" xmlns="http://www.w3.org/2000/svg">
<path fill-rule="evenodd" clip-rule="evenodd" d="M12.3273 13.5229C12.7736 13.2254 13.0416 12.7245 13.0416 12.1882V5.77148C13.0416 3.11361 10.887 0.958984 8.22915 0.958984H1.81248C0.926523 0.958984 0.208313 1.67719 0.208313 2.56315C0.208313 18.5104 14.7403 33.0423 30.6875 33.0423C31.5734 33.0423 32.2916 32.3241 32.2916 31.4382V25.0215C32.2916 22.3636 30.137 20.209 27.4791 20.209H21.0625C20.5261 20.209 20.0252 20.477 19.7277 20.9233L16.6712 25.5081C13.3423 23.3555 10.4256 20.5125 8.18221 17.2396L7.74257 16.5794L12.3273 13.5229ZM21.921 23.4173H27.4791C28.3651 23.4173 29.0833 24.1355 29.0833 25.0215V29.7784C25.9757 29.5633 22.9428 28.7322 20.114 27.4142L19.4649 27.1015L21.921 23.4173ZM3.47227 4.16732H8.22915C9.1151 4.16732 9.83331 4.88553 9.83331 5.77148V11.3296L6.14915 13.7857C4.64997 10.774 3.70385 7.51403 3.47227 4.16732Z" fill="white"/>
</svg>
