<svg width="30" height="30" viewBox="0 0 30 30" fill="none" xmlns="http://www.w3.org/2000/svg">
<path fill-rule="evenodd" clip-rule="evenodd" d="M9.89585 25.2083C11.104 25.2083 12.0834 26.1877 12.0834 27.3958C12.0834 28.604 11.104 29.5833 9.89585 29.5833C8.68773 29.5833 7.70835 28.604 7.70835 27.3958C7.70835 26.1877 8.68773 25.2083 9.89585 25.2083ZM23.0209 25.2083C24.229 25.2083 25.2084 26.1877 25.2084 27.3958C25.2084 28.604 24.229 29.5833 23.0209 29.5833C21.8127 29.5833 20.8334 28.604 20.8334 27.3958C20.8334 26.1877 21.8127 25.2083 23.0209 25.2083ZM1.87502 0.416672H4.79169C5.45611 0.416672 6.0288 0.864147 6.19906 1.49254L6.23306 1.65326L6.94026 6.25001H28.125C28.9997 6.25001 29.6635 7.00933 29.5762 7.85468L29.5486 8.0247L27.1395 18.8657C26.714 20.7804 25.0711 22.1667 23.1345 22.2837L22.8687 22.2917H10.2106C8.13762 22.2917 6.36227 20.8397 5.93306 18.8353L5.88649 18.5819L3.54056 3.33334H1.87502C1.06961 3.33334 0.416687 2.68042 0.416687 1.87501C0.416687 1.12712 0.979662 0.510724 1.70495 0.426483L1.87502 0.416672H4.79169H1.87502ZM26.307 9.16667H7.38897L8.76924 18.1384C8.87027 18.7951 9.39963 19.2931 10.0466 19.3658L10.2106 19.375H22.8687C23.4952 19.375 24.0447 18.9761 24.2462 18.3957L24.2923 18.233L26.307 9.16667Z" fill="white"/>
</svg>
