<svg width="15" height="16" viewBox="0 0 15 16" fill="none" xmlns="http://www.w3.org/2000/svg">
<path fill-rule="evenodd" clip-rule="evenodd" d="M7.50002 0.916672C11.412 0.916672 14.5834 4.08799 14.5834 8.00001C14.5834 11.912 11.412 15.0833 7.50002 15.0833C3.588 15.0833 0.416687 11.912 0.416687 8.00001C0.416687 4.08799 3.588 0.916672 7.50002 0.916672ZM7.50002 2.33334C4.37041 2.33334 1.83335 4.87039 1.83335 8.00001C1.83335 11.1296 4.37041 13.6667 7.50002 13.6667C10.6296 13.6667 13.1667 11.1296 13.1667 8.00001C13.1667 4.87039 10.6296 2.33334 7.50002 2.33334ZM7.50002 3.75001C7.86328 3.75001 8.16267 4.02345 8.20359 4.37573L8.20835 4.45834V7.7066L9.41755 8.9158C9.69418 9.19243 9.69418 9.64092 9.41755 9.91754C9.16221 10.1729 8.76042 10.1925 8.48255 9.97647L8.41582 9.91754L6.99915 8.50087C6.88845 8.39017 6.81818 8.24661 6.79783 8.09311L6.79169 8.00001V4.45834C6.79169 4.06714 7.10882 3.75001 7.50002 3.75001Z" fill="white"/>
</svg>
