<svg width="20" height="20" viewBox="0 0 20 20" fill="none" xmlns="http://www.w3.org/2000/svg">
<path fill-rule="evenodd" clip-rule="evenodd" d="M9 0H11C12.5977 0 13.9037 1.24892 13.9949 2.82373L14 3V4H17C18.6569 4 20 5.34315 20 7V17C20 18.6569 18.6569 20 17 20H3C1.34315 20 0 18.6569 0 17V7C0 5.34315 1.34315 4 3 4H6V3C6 1.40232 7.24892 0.0963391 8.82373 0.00509262L9 0H11H9ZM18 14H2V17C2 17.5523 2.44772 18 3 18H17C17.5523 18 18 17.5523 18 17V14ZM17 6H3C2.44772 6 2 6.44772 2 7V12H18V7C18 6.44772 17.5523 6 17 6ZM11 2H9C8.48716 2 8.06449 2.38604 8.00673 2.88338L8 3V4H12V3C12 2.48716 11.614 2.06449 11.1166 2.00673L11 2Z" fill="#502F5A"/>
</svg>
