<svg width="18" height="18" viewBox="0 0 18 18" fill="none" xmlns="http://www.w3.org/2000/svg">
<path fill-rule="evenodd" clip-rule="evenodd" d="M8.99999 0.666504C13.6024 0.666504 17.3333 4.39746 17.3333 8.99984C17.3333 13.6022 13.6024 17.3332 8.99999 17.3332C4.39762 17.3332 0.666656 13.6022 0.666656 8.99984C0.666656 4.39746 4.39762 0.666504 8.99999 0.666504ZM8.99999 2.33317C5.31809 2.33317 2.33332 5.31794 2.33332 8.99984C2.33332 12.6817 5.31809 15.6665 8.99999 15.6665C12.6819 15.6665 15.6667 12.6817 15.6667 8.99984C15.6667 5.31794 12.6819 2.33317 8.99999 2.33317ZM11.7441 5.91058L7.33332 10.3213L6.25591 9.24392C5.93048 8.91848 5.40284 8.91848 5.0774 9.24392C4.75196 9.56935 4.75196 10.097 5.0774 10.4224L6.74407 12.0891C7.0695 12.4145 7.59714 12.4145 7.92258 12.0891L12.9226 7.08909C13.248 6.76366 13.248 6.23602 12.9226 5.91058C12.5971 5.58514 12.0695 5.58514 11.7441 5.91058Z" fill="white"/>
</svg>
