<svg width="17" height="18" viewBox="0 0 17 18" fill="none" xmlns="http://www.w3.org/2000/svg">
<path fill-rule="evenodd" clip-rule="evenodd" d="M13.4584 3.33301C14.632 3.33301 15.5834 4.2844 15.5834 5.45801V12.5413C15.5834 13.7149 14.632 14.6663 13.4584 14.6663H3.54169C2.36808 14.6663 1.41669 13.7149 1.41669 12.5413V5.45801C1.41669 4.2844 2.36808 3.33301 3.54169 3.33301H13.4584ZM14.1667 5.69034L8.96646 10.2411C8.72166 10.4553 8.36619 10.4731 8.10294 10.2946L8.03358 10.2411L2.83335 5.69105V12.5413C2.83335 12.9325 3.15049 13.2497 3.54169 13.2497H13.4584C13.8496 13.2497 14.1667 12.9325 14.1667 12.5413V5.69034ZM13.09 4.74967H3.9086L8.50002 8.7668L13.09 4.74967Z" fill="#1F1A17"/>
</svg>
