<svg width="19" height="20" viewBox="0 0 19 20" fill="none" xmlns="http://www.w3.org/2000/svg">
<path fill-rule="evenodd" clip-rule="evenodd" d="M7.56413 8.28338C7.78437 8.13655 7.91666 7.88937 7.91666 7.62467V4.45801C7.91666 3.14633 6.85334 2.08301 5.54166 2.08301H2.37499C1.93777 2.08301 1.58333 2.43745 1.58333 2.87467C1.58333 10.7447 8.75494 17.9163 16.625 17.9163C17.0622 17.9163 17.4167 17.5619 17.4167 17.1247V13.958C17.4167 12.6463 16.3533 11.583 15.0417 11.583H11.875C11.6103 11.583 11.3631 11.7153 11.2163 11.9355L9.70789 14.1981C8.06501 13.1359 6.62565 11.7328 5.5185 10.1176L5.30154 9.79178L7.56413 8.28338ZM12.2987 13.1663H15.0417C15.4789 13.1663 15.8333 13.5208 15.8333 13.958V16.3056C14.2997 16.1994 12.8029 15.7893 11.4069 15.1388L11.0866 14.9845L12.2987 13.1663ZM3.19411 3.66634H5.54166C5.97889 3.66634 6.33333 4.02078 6.33333 4.45801V7.20099L4.51517 8.41309C3.77531 6.92678 3.3084 5.31796 3.19411 3.66634Z" fill="white"/>
</svg>
