<svg width="15" height="12" viewBox="0 0 15 12" fill="none" xmlns="http://www.w3.org/2000/svg">
<path fill-rule="evenodd" clip-rule="evenodd" d="M6.69351 0.924571L6.63805 0.861766C6.39773 0.621444 6.01957 0.602957 5.75805 0.806307L5.69524 0.861766L1.02858 5.52843L1.00098 5.55774L0.964203 5.60297L0.916427 5.67713L0.880797 5.75228L0.85721 5.82251L0.837918 5.92111L0.833313 5.99984L0.835172 6.05L0.846806 6.13366L0.866472 6.20793L0.895762 6.28199L0.930643 6.34698L0.979772 6.4168L1.02858 6.47124L5.69524 11.1379C5.95559 11.3983 6.3777 11.3983 6.63805 11.1379C6.87837 10.8976 6.89686 10.5194 6.69351 10.2579L6.63805 10.1951L3.11065 6.66651H13.5C13.8682 6.66651 14.1666 6.36803 14.1666 5.99984C14.1666 5.63165 13.8682 5.33317 13.5 5.33317H3.10931L6.63805 1.80458C6.87837 1.56425 6.89686 1.1861 6.69351 0.924571L6.63805 0.861766L6.69351 0.924571Z" fill="#9E9E9E"/>
</svg>
