<svg width="17" height="18" viewBox="0 0 17 18" fill="none" xmlns="http://www.w3.org/2000/svg">
<path fill-rule="evenodd" clip-rule="evenodd" d="M8.50002 1.91699C12.412 1.91699 15.5834 5.08831 15.5834 9.00033C15.5834 12.9123 12.412 16.0837 8.50002 16.0837C4.588 16.0837 1.41669 12.9123 1.41669 9.00033C1.41669 5.08831 4.588 1.91699 8.50002 1.91699ZM8.50002 3.33366C5.37041 3.33366 2.83335 5.87071 2.83335 9.00033C2.83335 12.1299 5.37041 14.667 8.50002 14.667C11.6296 14.667 14.1667 12.1299 14.1667 9.00033C14.1667 5.87071 11.6296 3.33366 8.50002 3.33366ZM8.50002 4.75033C8.86328 4.75033 9.16267 5.02377 9.20359 5.37605L9.20835 5.45866V8.70692L10.4176 9.91613C10.6942 10.1927 10.6942 10.6412 10.4176 10.9179C10.1622 11.1732 9.76042 11.1928 9.48255 10.9768L9.41582 10.9179L7.99915 9.50119C7.88845 9.39049 7.81818 9.24693 7.79783 9.09343L7.79169 9.00033V5.45866C7.79169 5.06746 8.10882 4.75033 8.50002 4.75033Z" fill="#1F1A17"/>
</svg>
