<svg width="15" height="12" viewBox="0 0 15 12" fill="none" xmlns="http://www.w3.org/2000/svg">
<path fill-rule="evenodd" clip-rule="evenodd" d="M12.4584 0.333328C13.632 0.333328 14.5834 1.28472 14.5834 2.45833V9.54166C14.5834 10.7153 13.632 11.6667 12.4584 11.6667H2.54169C1.36808 11.6667 0.416687 10.7153 0.416687 9.54166V2.45833C0.416687 1.28472 1.36808 0.333328 2.54169 0.333328H12.4584ZM13.1667 2.69066L7.96646 7.2414C7.72166 7.45561 7.36619 7.47346 7.10294 7.29495L7.03358 7.2414L1.83335 2.69137V9.54166C1.83335 9.93286 2.15049 10.25 2.54169 10.25H12.4584C12.8496 10.25 13.1667 9.93286 13.1667 9.54166V2.69066ZM12.09 1.74999H2.9086L7.50002 5.76712L12.09 1.74999Z" fill="white"/>
</svg>
