<svg width="17" height="16" viewBox="0 0 17 16" fill="none" xmlns="http://www.w3.org/2000/svg">
<path fill-rule="evenodd" clip-rule="evenodd" d="M6.56412 6.2837C6.78436 6.13688 6.91665 5.88969 6.91665 5.625V2.45833C6.91665 1.14665 5.85332 0.0833282 4.54165 0.0833282H1.37498C0.937754 0.0833282 0.583313 0.43777 0.583313 0.874995C0.583313 8.74505 7.75492 15.9167 15.625 15.9167C16.0622 15.9167 16.4166 15.5622 16.4166 15.125V11.9583C16.4166 10.6467 15.3533 9.58333 14.0416 9.58333H10.875C10.6103 9.58333 10.3631 9.71562 10.2163 9.93586L8.70788 12.1985C7.065 11.1362 5.62564 9.73309 4.51848 8.11792L4.30152 7.7921L6.56412 6.2837ZM11.2987 11.1667H14.0416C14.4789 11.1667 14.8333 11.5211 14.8333 11.9583V14.3059C13.2997 14.1998 11.8029 13.7896 10.4069 13.1392L10.0866 12.9848L11.2987 11.1667ZM2.1941 1.66666H4.54165C4.97887 1.66666 5.33331 2.0211 5.33331 2.45833V5.20131L3.51516 6.41341C2.7753 4.9271 2.30838 3.31829 2.1941 1.66666Z" fill="#B89C52"/>
</svg>
