<svg width="64" height="64" viewBox="0 0 64 64" fill="none" xmlns="http://www.w3.org/2000/svg">
<circle cx="32" cy="32" r="32" fill="#502F5A"/>
<g clip-path="url(#clip0)">
<path d="M41.3363 23.6415C38.9732 21.2784 35.8313 19.977 32.4893 19.977C31.5724 19.977 30.6577 20.0784 29.7634 20.278L29.4052 18.9337C29.3152 18.5977 29.0913 18.3111 28.791 18.1474C28.4993 17.9885 28.1644 17.9571 27.8478 18.0588C27.0029 18.3304 26.179 18.6775 25.3943 19.0921C24.9995 18.8775 24.5323 18.8714 24.1401 19.0962C21.8445 20.3823 20.3831 21.8438 19.0971 24.1392C18.8722 24.5314 18.8784 24.9988 19.0929 25.3935C18.6784 26.1782 18.3313 27.0021 18.0596 27.847V27.8471C17.9578 28.1636 17.9893 28.4986 18.1482 28.7903C18.3119 29.0906 18.5985 29.3144 18.9351 29.4047L20.2788 29.7627C20.0792 30.6571 19.9777 31.5717 19.9777 32.4886C19.9777 35.8305 21.2792 38.9725 23.6423 41.3356C26.0054 43.6987 29.1474 45.0002 32.4894 45.0002C35.8313 45.0002 38.9733 43.6987 41.3364 41.3356C43.6995 38.9725 45.001 35.8305 45.001 32.4886C45.001 29.1466 43.6994 26.0047 41.3363 23.6415ZM27.9566 24.9299C27.9536 24.9316 27.9506 24.9333 27.9477 24.9351C27.3349 25.305 26.7667 25.7501 26.2587 26.258C25.7509 26.7659 25.3058 27.3341 24.9358 27.947C24.9341 27.95 24.9324 27.9529 24.9306 27.9559C24.4808 28.735 23.9765 29.0547 23.2642 28.9783C23.758 27.6864 24.528 26.4972 25.513 25.5122C26.4979 24.5273 27.6871 23.7573 28.9791 23.2635C29.0554 23.9757 28.7357 24.48 27.9566 24.9299ZM19.0743 28.2856C19.054 28.2484 19.0505 28.2106 19.0636 28.17C19.3486 27.2833 19.7227 26.4219 20.1756 25.6094C20.2903 25.4035 20.2544 25.1465 20.0878 24.9798C19.9853 24.8773 19.9571 24.759 20.0123 24.6634C20.0134 24.6614 20.0146 24.6594 20.0157 24.6573C21.2149 22.5159 22.5165 21.2143 24.6579 20.015C24.6599 20.0139 24.6619 20.0128 24.6639 20.0116C24.7597 19.9564 24.878 19.9846 24.9805 20.0872C25.1471 20.2539 25.4041 20.2898 25.61 20.175C26.4226 19.7221 27.2841 19.348 28.1706 19.063C28.2112 19.0499 28.249 19.0533 28.2862 19.0736C28.3342 19.0998 28.3708 19.1483 28.3862 19.2061L29.1533 22.0846C27.5108 22.612 25.9951 23.5385 24.7671 24.7665C23.5391 25.9946 22.6125 27.5103 22.0853 29.1527L19.2073 28.3859C19.1489 28.3701 19.1004 28.3336 19.0743 28.2856ZM32.4893 43.9455C26.1719 43.9455 21.0324 38.8059 21.0324 32.4886C21.0324 31.6633 21.1221 30.84 21.2987 30.0345L21.9182 30.1995C21.9866 30.2179 22.0566 30.2266 22.1268 30.2266C22.3622 30.2266 22.5993 30.1281 22.7826 29.9651C23.018 30.016 23.2446 30.042 23.462 30.042C24.4451 30.042 25.2427 29.5222 25.8413 28.4878C26.1667 27.9495 26.558 27.4502 27.0045 27.0037C27.451 26.5573 27.9503 26.1659 28.4885 25.8405C29.7517 25.1095 30.2469 24.0817 29.9658 22.7817C30.1774 22.5437 30.2801 22.2151 30.2005 21.9182L30.0353 21.2979C30.8408 21.1213 31.6641 21.0316 32.4894 21.0316C38.8067 21.0316 43.9463 26.1712 43.9463 32.4886C43.9463 38.8059 38.8067 43.9455 32.4893 43.9455Z" fill="white"/>
<path d="M22.3656 26.6387C22.5101 26.3858 22.4223 26.0637 22.1694 25.9192C21.9165 25.7746 21.5943 25.8626 21.4498 26.1154L21.4496 26.1158C21.3051 26.3687 21.3931 26.6906 21.646 26.8351C21.7284 26.8823 21.8183 26.9046 21.907 26.9046C22.0902 26.9046 22.2682 26.8091 22.3656 26.6387Z" fill="white"/>
<path d="M26.3779 22.435C26.4722 22.435 26.5677 22.4097 26.6539 22.3567C26.9019 22.204 26.9792 21.8792 26.8266 21.6311C26.6739 21.3831 26.3491 21.3057 26.1011 21.4584L26.1007 21.4587C25.8527 21.6113 25.7755 21.936 25.9282 22.1841C26.0278 22.3459 26.2007 22.435 26.3779 22.435Z" fill="white"/>
<path d="M32.4884 26.1603C28.9991 26.1603 26.1604 28.9991 26.1604 32.4884C26.1604 35.0029 27.6494 37.2794 29.9537 38.2878C30.0226 38.3179 30.0943 38.3322 30.1649 38.3322C30.368 38.3322 30.5616 38.2142 30.6483 38.0162C30.765 37.7494 30.6434 37.4384 30.3766 37.3216C28.456 36.4811 27.215 34.584 27.215 32.4885C27.215 29.5807 29.5807 27.2151 32.4884 27.2151C35.3962 27.2151 37.7618 29.5807 37.7618 32.4885C37.7618 34.5839 36.521 36.481 34.6006 37.3215C34.3338 37.4383 34.2122 37.7492 34.329 38.016C34.4458 38.2829 34.7566 38.4044 35.0236 38.2877C37.3277 37.2791 38.8166 35.0028 38.8166 32.4884C38.8165 28.9991 35.9777 26.1603 32.4884 26.1603Z" fill="white"/>
<path d="M33.0158 28.7971C33.0158 28.5059 32.7797 28.2698 32.4884 28.2698H32.4881C32.1968 28.2698 31.9609 28.5059 31.9609 28.7971C31.9609 29.0883 32.1972 29.3245 32.4884 29.3245C32.7797 29.3245 33.0158 29.0883 33.0158 28.7971Z" fill="white"/>
<path d="M30.4218 28.8128L30.4215 28.813C30.157 28.935 30.0418 29.2483 30.1638 29.5128C30.2528 29.7056 30.4437 29.8192 30.643 29.8192C30.717 29.8192 30.7922 29.8035 30.8638 29.7705C31.1282 29.6485 31.2437 29.3351 31.1216 29.0707C30.9996 28.8062 30.6861 28.6908 30.4218 28.8128Z" fill="white"/>
<path d="M29.5842 30.204C29.3419 30.0425 29.0145 30.108 28.8529 30.3503L28.8527 30.3506C28.6911 30.5929 28.7567 30.9202 28.999 31.0817C29.0889 31.1416 29.1905 31.1703 29.291 31.1703C29.4615 31.1703 29.6288 31.0878 29.7304 30.9353C29.892 30.693 29.8266 30.3656 29.5842 30.204Z" fill="white"/>
<path d="M29.3245 32.4885C29.3245 32.1973 29.0884 31.9611 28.7971 31.9611C28.5059 31.9611 28.2698 32.1973 28.2698 32.4885V32.4888C28.2698 32.78 28.5059 33.016 28.7971 33.016C29.0884 33.016 29.3245 32.7797 29.3245 32.4885Z" fill="white"/>
<path d="M28.8202 34.5703C28.9126 34.755 29.0987 34.8617 29.2921 34.8617C29.3714 34.8617 29.4519 34.8438 29.5276 34.8058C29.7881 34.6756 29.8936 34.3587 29.7634 34.0982C29.6331 33.8378 29.3164 33.7321 29.0558 33.8623C28.7953 33.9926 28.6898 34.3094 28.82 34.5699L28.8202 34.5703Z" fill="white"/>
<path d="M30.9192 35.236C30.6711 35.0834 30.3463 35.1607 30.1937 35.4087C30.041 35.6568 30.1184 35.9816 30.3664 36.1343L30.3667 36.1345C30.4529 36.1875 30.5482 36.2127 30.6424 36.2127C30.8195 36.2127 30.9924 36.1235 31.0921 35.9616C31.2447 35.7136 31.1672 35.3887 30.9192 35.236Z" fill="white"/>
<path d="M32.4888 36.7071C32.7801 36.7071 33.016 36.4709 33.016 36.1797C33.016 35.8885 32.7797 35.6524 32.4884 35.6524C32.1972 35.6524 31.9611 35.8885 31.9611 36.1797C31.9611 36.4709 32.1972 36.7071 32.4884 36.7071H32.4888Z" fill="white"/>
<path d="M34.6105 36.1343L34.6108 36.134C34.8589 35.9814 34.936 35.6567 34.7833 35.4086C34.6307 35.1606 34.3058 35.0834 34.0577 35.236C33.8096 35.3887 33.7323 35.7135 33.885 35.9616C33.9846 36.1234 34.1575 36.2126 34.3346 36.2126C34.4289 36.2126 34.5243 36.1873 34.6105 36.1343Z" fill="white"/>
<path d="M35.951 33.8784C35.6995 33.7318 35.3765 33.8168 35.2297 34.0684C35.083 34.32 35.168 34.6429 35.4195 34.7896C35.503 34.8384 35.5945 34.8616 35.6847 34.8616C35.8661 34.8616 36.0427 34.7678 36.1407 34.5998L36.1409 34.5995C36.2876 34.3479 36.2026 34.0251 35.951 33.8784Z" fill="white"/>
<path d="M36.7071 32.4884V32.488C36.7071 32.1968 36.471 31.9609 36.1797 31.9609C35.8885 31.9609 35.6524 32.1972 35.6524 32.4884C35.6524 32.7797 35.8885 33.0158 36.1797 33.0158C36.471 33.0158 36.7071 32.7796 36.7071 32.4884Z" fill="white"/>
<path d="M36.1238 30.3499C35.9623 30.1076 35.635 30.0422 35.3926 30.2038C35.1503 30.3653 35.0849 30.6929 35.2464 30.9352C35.348 31.0877 35.5152 31.1701 35.6857 31.1701C35.7862 31.1701 35.8878 31.1414 35.9777 31.0815C36.22 30.9199 36.2855 30.5925 36.1239 30.3502L36.1238 30.3499Z" fill="white"/>
<path d="M34.3336 29.8191C34.5106 29.8191 34.6836 29.73 34.7832 29.5681C34.9358 29.3201 34.8585 28.9953 34.6105 28.8426L34.6101 28.8424C34.3621 28.6897 34.0375 28.7672 33.8848 29.0152C33.7321 29.2633 33.8096 29.5882 34.0577 29.7408C34.1439 29.7939 34.2393 29.8191 34.3336 29.8191Z" fill="white"/>
<path d="M30.3791 32.4885C30.3791 33.6516 31.3254 34.5978 32.4885 34.5978C33.6516 34.5978 34.5978 33.6516 34.5978 32.4885C34.5978 31.3253 33.6516 30.379 32.4885 30.379C31.3254 30.379 30.3791 31.3253 30.3791 32.4885ZM32.4885 31.4337C33.07 31.4337 33.5432 31.9069 33.5432 32.4885C33.5432 33.07 33.07 33.5431 32.4885 33.5431C31.9069 33.5431 31.4338 33.07 31.4338 32.4885C31.4338 31.9069 31.9069 31.4337 32.4885 31.4337Z" fill="white"/>
<path d="M31.7336 24.9034C31.8167 24.9513 31.9073 24.9741 31.9968 24.9741C32.1791 24.9741 32.3563 24.8795 32.454 24.7104L33.4363 23.0089C33.582 22.7567 33.4955 22.4342 33.2433 22.2885C32.9912 22.143 32.6686 22.2293 32.5229 22.4816L31.5406 24.183C31.3949 24.4353 31.4813 24.7577 31.7336 24.9034Z" fill="white"/>
<path d="M24.4462 33.507C24.6284 33.507 24.8057 33.4124 24.9033 33.2433C25.049 32.991 24.9626 32.6686 24.7103 32.5229L23.0089 31.5406C22.7567 31.395 22.4342 31.4814 22.2885 31.7336C22.1428 31.9858 22.2293 32.3083 22.4815 32.4539L24.183 33.4363C24.266 33.4842 24.3567 33.507 24.4462 33.507Z" fill="white"/>
<path d="M25.7696 36.4073H23.805C23.5137 36.4073 23.2776 36.6435 23.2776 36.9347C23.2776 37.2259 23.5137 37.462 23.805 37.462H25.7696C26.0609 37.462 26.297 37.2259 26.297 36.9347C26.297 36.6435 26.0609 36.4073 25.7696 36.4073Z" fill="white"/>
<path d="M28.6293 39.2417L26.9278 40.224C26.6756 40.3696 26.5892 40.6921 26.7348 40.9443C26.8325 41.1135 27.0097 41.2081 27.192 41.2081C27.2814 41.2081 27.3721 41.1853 27.4552 41.1374L29.1566 40.155C29.4089 40.0094 29.4953 39.6869 29.3497 39.4347C29.204 39.1824 28.8815 39.096 28.6293 39.2417Z" fill="white"/>
<path d="M33.2433 40.0736C32.9912 39.928 32.6686 40.0144 32.5229 40.2666L31.5406 41.968C31.395 42.2203 31.4814 42.5427 31.7336 42.6884C31.8167 42.7363 31.9073 42.7592 31.9968 42.7592C32.1791 42.7592 32.3563 42.6646 32.454 42.4954L33.4363 40.7939C33.5819 40.5417 33.4955 40.2192 33.2433 40.0736Z" fill="white"/>
<path d="M36.9347 38.6799C36.6434 38.6799 36.4073 38.916 36.4073 39.2072V41.1719C36.4073 41.4631 36.6434 41.6992 36.9347 41.6992C37.2259 41.6992 37.462 41.4631 37.462 41.1719V39.2072C37.462 38.916 37.2259 38.6799 36.9347 38.6799Z" fill="white"/>
<path d="M40.1551 35.8203C40.0094 35.5681 39.687 35.4816 39.4347 35.6273C39.1825 35.7729 39.0961 36.0954 39.2417 36.3476L40.2241 38.0491C40.3217 38.2183 40.499 38.3129 40.6812 38.3129C40.7706 38.3129 40.8614 38.2901 40.9444 38.2421C41.1966 38.0965 41.2831 37.774 41.1374 37.5218L40.1551 35.8203Z" fill="white"/>
<path d="M42.4953 32.5229L40.7938 31.5406C40.5416 31.3951 40.2191 31.4814 40.0734 31.7336C39.9278 31.9859 40.0143 32.3084 40.2665 32.454L41.968 33.4363C42.051 33.4842 42.1417 33.507 42.2312 33.507C42.4134 33.507 42.5907 33.4124 42.6884 33.2433C42.834 32.991 42.7475 32.6685 42.4953 32.5229Z" fill="white"/>
<path d="M41.1719 28.5695C41.4632 28.5695 41.6992 28.3334 41.6992 28.0422C41.6992 27.751 41.4632 27.5148 41.1719 27.5148H39.2072C38.916 27.5148 38.6799 27.751 38.6799 28.0422C38.6799 28.3334 38.916 28.5695 39.2072 28.5695H41.1719Z" fill="white"/>
<path d="M36.0844 25.8059C36.1739 25.8059 36.2646 25.7831 36.3476 25.7351L38.0491 24.7528C38.3013 24.6072 38.3878 24.2847 38.2421 24.0324C38.0965 23.7802 37.7739 23.6938 37.5218 23.8394L35.8203 24.8218C35.5681 24.9674 35.4816 25.2899 35.6273 25.5421C35.7249 25.7113 35.9022 25.8059 36.0844 25.8059Z" fill="white"/>
<path d="M32.4888 38.8165C32.7801 38.8165 33.0162 38.5803 33.0162 38.2891C33.0162 37.9979 32.7801 37.7618 32.4888 37.7618H32.4885C32.1972 37.7618 31.9613 37.9979 31.9613 38.2891C31.9613 38.5803 32.1976 38.8165 32.4888 38.8165Z" fill="white"/>
</g>
<defs>
<clipPath id="clip0">
<rect width="27" height="27" fill="white" transform="translate(18 18)"/>
</clipPath>
</defs>
</svg>
