<svg width="96" height="96" viewBox="0 0 96 96" fill="none" xmlns="http://www.w3.org/2000/svg">
<path d="M77.8144 0.654224C77.5155 0.355377 77.1102 0.187494 76.6875 0.1875H71.9062C71.4836 0.187494 71.0782 0.355377 70.7793 0.654224L67.5918 3.84172C67.4438 3.98972 67.3264 4.16543 67.2463 4.3588C67.1662 4.55218 67.125 4.75944 67.125 4.96875C67.125 5.17806 67.1662 5.38532 67.2463 5.5787C67.3264 5.77207 67.4438 5.94778 67.5918 6.09578L68.0585 6.5625L65.5312 9.08979L65.0644 8.62297C64.7655 8.32418 64.3601 8.15634 63.9375 8.15634C63.5148 8.15634 63.1095 8.32418 62.8106 8.62297L45.2793 26.1542C45.0405 26.393 44.8838 26.7014 44.8316 27.0351C44.7794 27.3687 44.8346 27.7103 44.9891 28.0105C45.1436 28.3108 45.3895 28.5542 45.6913 28.7057C45.9931 28.8572 46.3352 28.9089 46.6683 28.8534C49.8999 28.3169 53.2174 28.7114 56.2331 29.9907C53.9332 34.645 50.6721 38.7583 46.6649 42.0591C42.6578 45.3598 37.996 47.7727 32.9874 49.1385L30.4367 49.8341C27.9029 49.6019 25.3491 49.9302 22.9564 50.7956C20.5637 51.661 18.3908 53.0424 16.5918 54.8417L0.654315 70.7792C0.506307 70.9272 0.388901 71.1029 0.308799 71.2963C0.228697 71.4897 0.187469 71.6969 0.187469 71.9062C0.187469 72.1156 0.228697 72.3228 0.308799 72.5162C0.388901 72.7096 0.506307 72.8853 0.654315 73.0333L7.02932 79.4083C7.32822 79.7071 7.73358 79.875 8.15624 79.875C8.57891 79.875 8.98427 79.7071 9.28317 79.4083L12.9375 75.754L20.246 83.0625L16.5918 86.7167C16.4438 86.8647 16.3264 87.0404 16.2463 87.2338C16.1662 87.4272 16.125 87.6344 16.125 87.8438C16.125 88.0531 16.1662 88.2603 16.2463 88.4537C16.3264 88.6471 16.4438 88.8228 16.5918 88.9708L22.9668 95.3458C23.2657 95.6446 23.6711 95.8125 24.0937 95.8125C24.5164 95.8125 24.9218 95.6446 25.2207 95.3458L41.1582 79.4083C42.9576 77.6093 44.3391 75.4363 45.2045 73.0435C46.07 70.6508 46.3983 68.0969 46.166 65.563L46.8616 63.0126C48.2273 58.004 50.6402 53.3422 53.9409 49.3351C57.2416 45.328 61.3549 42.0668 66.0091 39.767C67.2882 42.7827 67.6827 46.1001 67.1467 49.3317C67.0912 49.6648 67.1429 50.0069 67.2943 50.3086C67.4458 50.6104 67.6892 50.8563 67.9894 51.0108C68.2897 51.1654 68.6312 51.2205 68.9648 51.1684C69.2984 51.1163 69.6069 50.9595 69.8457 50.7208L87.3769 33.1895C87.5249 33.0415 87.6423 32.8658 87.7224 32.6724C87.8025 32.4791 87.8438 32.2718 87.8438 32.0625C87.8438 31.8532 87.8025 31.6459 87.7224 31.4526C87.6423 31.2592 87.5249 31.0835 87.3769 30.9355L86.9102 30.4688L89.4375 27.9415L89.9043 28.4083C90.2032 28.7071 90.6086 28.875 91.0312 28.875C91.4539 28.875 91.8593 28.7071 92.1582 28.4083L95.3457 25.2208C95.6446 24.9219 95.8125 24.5165 95.8125 24.0938V19.3125C95.8125 18.8898 95.6446 18.4844 95.3457 18.1855L77.8144 0.654224ZM34.1231 72.373C32.9089 73.5871 31.3114 74.3427 29.6026 74.511C27.8938 74.6793 26.1795 74.2499 24.7518 73.2959C23.3242 72.342 22.2714 70.9225 21.773 69.2794C21.2746 67.6363 21.3613 65.8712 22.0184 64.2848C22.6755 62.6985 23.8623 61.389 25.3766 60.5796C26.8909 59.7702 28.639 59.5109 30.3231 59.8459C32.0071 60.1809 33.5229 61.0894 34.6122 62.4167C35.7015 63.744 36.2969 65.408 36.2969 67.125C36.2959 69.0932 35.5141 70.9806 34.1231 72.373ZM21.3731 74.627C23.1692 76.4183 25.5469 77.508 28.0764 77.6991C30.6059 77.8902 33.1203 77.1702 35.1652 75.6691L37.7127 78.2167C34.987 80.3893 31.5565 81.482 28.0763 81.2861C24.5961 81.0903 21.31 79.6196 18.8452 77.1548C16.3804 74.69 14.9097 71.4039 14.7139 67.9237C14.518 64.4435 15.6107 61.0131 17.7833 58.2873L20.33 60.8339C18.8261 62.878 18.1045 65.3933 18.2958 67.9237C18.4872 70.4542 19.5789 72.8323 21.3731 74.627H21.3731ZM11.7674 64.1741C11.4335 66.1272 11.4335 68.1228 11.7674 70.076L8.81645 67.125L11.7674 64.1741ZM8.15624 76.0274L4.0351 71.9062L6.56248 69.379L10.6836 73.5L8.15624 76.0274ZM24.0937 91.9649L19.9726 87.8438L22.5 85.3165L26.6211 89.4375L24.0937 91.9649ZM28.875 87.1836L25.9239 84.2326C27.8766 84.5731 29.8734 84.5731 31.826 84.2326L28.875 87.1836ZM39.9667 75.9627L37.42 73.4161C38.9243 71.3723 39.6463 68.857 39.455 66.3266C39.2637 63.7961 38.1718 61.4179 36.3774 59.6235C34.583 57.8291 32.2048 56.7372 29.6743 56.5459C27.1439 56.3546 24.6286 57.0766 22.5848 58.5809L20.0373 56.0333C22.7631 53.8607 26.1935 52.768 29.6737 52.9639C33.1539 53.1598 36.44 54.6305 38.9048 57.0952C41.3695 59.56 42.8402 62.8461 43.0361 66.3263C43.232 69.8065 42.1393 73.2369 39.9667 75.9627ZM54.0646 44.4627C49.7861 48.7453 46.5365 53.9438 44.5609 59.6659C42.8482 56.0578 39.9421 53.1518 36.3339 51.4391C42.056 49.4636 47.2546 46.2139 51.5372 41.9355C54.5889 38.8881 57.124 35.364 59.0428 31.5016C59.9975 32.1339 60.8866 32.8602 61.6968 33.6695L62.3306 34.3033C63.1399 35.1134 63.8661 36.0025 64.4984 36.9572C60.636 38.876 57.112 41.411 54.0646 44.4627ZM70.5431 45.5154C70.2953 40.4431 68.1716 35.6439 64.5845 32.0493L63.9506 31.4154C60.3562 27.828 55.5568 25.7044 50.4845 25.457L63.9375 12.0039L83.996 32.0625L70.5431 45.5154ZM84.6562 28.2148L67.7852 11.3438L70.3125 8.81646L87.1835 25.6875L84.6562 28.2148ZM92.625 23.4336L91.0312 25.0274L70.9726 4.96875L72.5664 3.375H76.0274L92.625 19.9726V23.4336Z" fill="white"/>
<path d="M68.7188 32.0625C69.6644 32.0625 70.5888 31.7821 71.3751 31.2567C72.1613 30.7313 72.7742 29.9846 73.1361 29.111C73.4979 28.2373 73.5926 27.2759 73.4081 26.3485C73.2237 25.421 72.7683 24.5691 72.0996 23.9004C71.4309 23.2317 70.579 22.7764 69.6515 22.5919C68.7241 22.4074 67.7627 22.5021 66.889 22.864C66.0154 23.2258 65.2687 23.8387 64.7433 24.6249C64.2179 25.4112 63.9375 26.3356 63.9375 27.2813C63.9389 28.5489 64.4431 29.7642 65.3395 30.6605C66.2358 31.5569 67.4511 32.0611 68.7188 32.0625ZM68.7188 25.6875C69.034 25.6875 69.3421 25.781 69.6042 25.9561C69.8663 26.1312 70.0706 26.3801 70.1912 26.6714C70.3118 26.9626 70.3434 27.283 70.2819 27.5922C70.2204 27.9013 70.0686 28.1853 69.8457 28.4082C69.6228 28.6311 69.3388 28.7829 69.0297 28.8444C68.7205 28.9059 68.4001 28.8743 68.1089 28.7537C67.8176 28.6331 67.5687 28.4288 67.3936 28.1667C67.2185 27.9046 67.125 27.5965 67.125 27.2813C67.1255 26.8587 67.2936 26.4536 67.5923 26.1548C67.8911 25.8561 68.2962 25.688 68.7188 25.6875Z" fill="white"/>
<path d="M50.0606 60.2833L63.9375 74.1603V84.6563C63.9375 85.079 64.1054 85.4844 64.4043 85.7834L72.3731 93.7521C72.672 94.0509 73.0773 94.2188 73.5 94.2188H84.6562C85.0789 94.2188 85.4843 94.0509 85.7832 93.7521L93.7519 85.7834C94.0508 85.4844 94.2187 85.079 94.2188 84.6563V73.5001C94.2187 73.0774 94.0508 72.672 93.7519 72.373L85.7832 64.4043C85.4843 64.1055 85.0789 63.9376 84.6562 63.9376H74.1602L58.6894 48.4668L56.4356 50.7208L71.2461 65.5313L65.5313 71.2462L52.3144 58.0293L50.0606 60.2833ZM74.1602 67.1251H83.9962L91.0312 74.1602V83.9962L83.9961 91.0313H74.1601L67.125 83.9962V74.1603L74.1602 67.1251Z" fill="white"/>
<path d="M8.62316 30.002C8.92206 30.3009 9.32742 30.4688 9.75009 30.4688H20.2461L35.7169 45.9395L37.9708 43.6855L23.1602 28.875L28.8751 23.1601L45.2794 39.5645L47.5333 37.3105L30.4688 20.246V9.75C30.4688 9.32729 30.3009 8.92188 30.002 8.62297L22.0333 0.654224C21.7344 0.355377 21.329 0.187494 20.9063 0.1875H9.75009C9.43487 0.187499 9.12672 0.280974 8.86463 0.456105C8.60253 0.631235 8.39825 0.880155 8.27763 1.17139C8.157 1.46262 8.12544 1.78308 8.18695 2.09224C8.24845 2.40141 8.40026 2.68539 8.62316 2.90828L17.7188 12.0039V15.4649L15.465 17.7188H12.004L2.90827 8.62297C2.68536 8.40012 2.40138 8.24837 2.09223 8.1869C1.78308 8.12544 1.46265 8.15701 1.17145 8.27764C0.880244 8.39827 0.631347 8.60254 0.456224 8.86461C0.281101 9.12669 0.187617 9.4348 0.187592 9.75V20.9062C0.187594 21.329 0.355514 21.7344 0.654413 22.0333L8.62316 30.002ZM3.37509 13.5976L10.2169 20.4395C10.5158 20.7384 10.9212 20.9063 11.3438 20.9062H16.1251C16.5478 20.9063 16.9531 20.7384 17.252 20.4395L20.4395 17.252C20.7384 16.9531 20.9063 16.5477 20.9063 16.125V11.3438C20.9063 10.921 20.7384 10.5156 20.4395 10.2167L13.5977 3.375H20.2462L27.2813 10.4101V20.246L20.2461 27.2812H10.4102L3.37509 20.2461V13.5976Z" fill="white"/>
<path d="M72.3731 82.5958L75.5606 85.7833C75.8595 86.0821 76.2648 86.25 76.6875 86.25H81.4688C81.8914 86.25 82.2968 86.0821 82.5957 85.7833L85.7832 82.5958C86.0821 82.2969 86.25 81.8915 86.25 81.4688V76.6875C86.25 76.2648 86.0821 75.8594 85.7832 75.5605L82.5957 72.373C82.2968 72.0741 81.8914 71.9062 81.4688 71.9063H76.6875C76.2648 71.9062 75.8595 72.0741 75.5606 72.373L72.3731 75.5605C72.0742 75.8594 71.9063 76.2648 71.9062 76.6875V81.4688C71.9063 81.8915 72.0742 82.2969 72.3731 82.5958ZM75.0938 77.3476L77.3476 75.0938H80.8086L83.0625 77.3476V80.8086L80.8086 83.0625H77.3476L75.0938 80.8086V77.3476Z" fill="white"/>
<path d="M30.0017 27.7484L27.7478 30.0024L38.1077 40.3614L40.3615 38.1073L30.0017 27.7484Z" fill="white"/>
<path d="M56.2986 54.0453L54.0447 56.2993L64.4045 66.6582L66.6584 64.4042L56.2986 54.0453Z" fill="white"/>
</svg>
