<svg width="94" height="94" viewBox="0 0 94 94" fill="none" xmlns="http://www.w3.org/2000/svg">
<path d="M17.232 17.2354H9.39925C8.53412 17.2354 7.8327 17.9368 7.8327 18.8019V26.6346C7.8327 27.4998 8.53412 28.2012 9.39925 28.2012H17.232C18.0971 28.2012 18.7985 27.4998 18.7985 26.6346V18.8019C18.7985 17.9368 18.0971 17.2354 17.232 17.2354ZM15.6654 25.0681H10.9658V20.3684H15.6654V25.0681Z" fill="white"/>
<path d="M32.8974 17.2354H25.0647C24.1996 17.2354 23.4982 17.9368 23.4982 18.8019V26.6346C23.4982 27.4998 24.1996 28.2012 25.0647 28.2012H32.8974C33.7626 28.2012 34.464 27.4998 34.464 26.6346V18.8019C34.464 17.9368 33.7626 17.2354 32.8974 17.2354ZM31.3309 25.0681H26.6313V20.3684H31.3309V25.0681Z" fill="white"/>
<path d="M32.8974 32.9009H25.0647C24.1996 32.9009 23.4982 33.6023 23.4982 34.4674V42.3002C23.4982 43.1653 24.1996 43.8667 25.0647 43.8667H32.8974C33.7626 43.8667 34.464 43.1653 34.464 42.3002V34.4674C34.464 33.6023 33.7626 32.9009 32.8974 32.9009ZM31.3309 40.7336H26.6313V36.034H31.3309V40.7336Z" fill="white"/>
<path d="M17.232 32.9009H9.39925C8.53412 32.9009 7.8327 33.6023 7.8327 34.4674V42.3002C7.8327 43.1653 8.53412 43.8667 9.39925 43.8667H17.232C18.0971 43.8667 18.7985 43.1653 18.7985 42.3002V34.4674C18.7985 33.6023 18.0971 32.9009 17.232 32.9009ZM15.6654 40.7336H10.9658V36.034H15.6654V40.7336Z" fill="white"/>
<path d="M46.9964 54.8325H7.8327V57.9656H46.9964V54.8325Z" fill="white"/>
<path d="M39.1636 61.0986H7.8327V64.2317H39.1636V61.0986Z" fill="white"/>
<path d="M15.6654 67.3647H7.8327V70.4978H15.6654V67.3647Z" fill="white"/>
<path d="M46.9964 76.7642H36.0306V79.8973H46.9964V76.7642Z" fill="white"/>
<path d="M42.2968 83.0303H36.0306V86.1634H42.2968V83.0303Z" fill="white"/>
<path d="M67.3615 12.5356C56.1141 12.5356 46.9964 21.6533 46.9964 32.9007C46.9964 44.1482 56.1141 53.2658 67.3615 53.2658C78.6089 53.2658 87.7266 44.1482 87.7266 32.9007C87.7137 21.6588 78.6034 12.5486 67.3615 12.5356ZM67.3615 50.1327C57.8445 50.1327 50.1295 42.4177 50.1295 32.9007C50.1295 23.3838 57.8445 15.6687 67.3615 15.6687C76.8785 15.6687 84.5935 23.3838 84.5935 32.9007C84.5823 42.4132 76.8738 50.1216 67.3615 50.1327Z" fill="white"/>
<path d="M93.2496 26.6373C90.3621 14.6828 79.6598 6.26343 67.3615 6.27107C62.9883 6.26852 58.6826 7.34924 54.8291 9.41669V6.27107C54.8291 5.40594 54.1277 4.70452 53.2626 4.70452H40.7302V1.57143C40.7302 0.706304 40.0288 0.00488281 39.1636 0.00488281H17.232C16.3669 0.00488281 15.6655 0.706304 15.6655 1.57143V4.70452H1.56655C0.701421 4.70452 0 5.40594 0 6.27107V92.4311C0 93.2962 0.701421 93.9976 1.56655 93.9976H53.2626C54.1277 93.9976 54.8291 93.2962 54.8291 92.4311V56.388C56.8088 57.4407 58.9145 58.2371 61.0953 58.7582V92.4311C61.0953 93.2962 61.7967 93.9976 62.6618 93.9976H72.0611C72.9262 93.9976 73.6277 93.2962 73.6277 92.4311V58.7582C87.9161 55.3067 96.7011 40.9258 93.2496 26.6373ZM18.7985 3.13797H37.5971V9.40416H18.7985V3.13797ZM51.696 90.8645H3.13309V7.83761H15.6655V10.9707C15.6655 11.8358 16.3669 12.5372 17.232 12.5372H39.1636C40.0288 12.5372 40.7302 11.8358 40.7302 10.9707V7.83761H51.696V11.414C39.8283 20.0142 37.1794 36.6064 45.7796 48.4742C47.4264 50.7469 49.4235 52.7438 51.696 54.3907V90.8645ZM70.4946 90.8645H64.2284V87.7315H70.4946V90.8645ZM70.4946 84.5984H64.2284V59.3331C66.3086 59.6004 68.4144 59.6004 70.4946 59.3331V84.5984ZM67.3615 56.4005C54.3838 56.4005 43.8633 45.88 43.8633 32.9023C43.8633 19.9247 54.3838 9.40416 67.3615 9.40416C80.3391 9.40416 90.8597 19.9247 90.8597 32.9023C90.845 45.8739 80.3331 56.3859 67.3615 56.4005Z" fill="white"/>
<path d="M46.9964 61.0986H42.2968V64.2317H46.9964V61.0986Z" fill="white"/>
<path d="M46.9964 67.3647H18.7986V70.4978H46.9964V67.3647Z" fill="white"/>
<path d="M74.0079 24.0394L58.4999 39.5474L60.7153 41.7628L76.2233 26.2548L74.0079 24.0394Z" fill="white"/>
<path d="M75.1138 31.7863L66.2522 40.6479L68.4676 42.8634L77.3293 34.0017L75.1138 31.7863Z" fill="white"/>
<path d="M66.2495 22.9318L57.3879 31.7935L59.6033 34.0089L68.4649 25.1472L66.2495 22.9318Z" fill="white"/>
</svg>
