<svg width="102" height="102" viewBox="0 0 102 102" fill="none" xmlns="http://www.w3.org/2000/svg">
<path d="M100.3 84.9999H95.2V28.8999C95.1942 24.2075 91.3924 20.4057 86.7 20.3999V23.7999C89.5165 23.7999 91.8 26.0834 91.8 28.8999V84.9999H10.2V28.8999C10.2 26.0834 12.4835 23.7999 15.3 23.7999V20.3999C10.6076 20.4057 6.80581 24.2075 6.8 28.8999V84.9999H1.7C0.761182 84.9999 0 85.7611 0 86.6999V93.4999C0 96.3163 2.28355 98.5999 5.1 98.5999H96.9C99.7165 98.5999 102 96.3163 102 93.4999V86.6999C102 85.7611 101.239 84.9999 100.3 84.9999ZM44.2 88.3999H57.8V90.0999H44.2V88.3999ZM98.6 93.4999C98.6 94.4387 97.8388 95.1999 96.9 95.1999H5.1C4.16118 95.1999 3.4 94.4387 3.4 93.4999V88.3999H40.8V90.0999C40.8 91.9775 42.3224 93.4999 44.2 93.4999H57.8C59.6776 93.4999 61.2 91.9775 61.2 90.0999V88.3999H98.6V93.4999Z" fill="white"/>
<path d="M23.8 61.1999H78.2C81.0165 61.1999 83.3 58.9164 83.3 56.0999V8.4999C83.3 5.68345 81.0165 3.3999 78.2 3.3999H23.8C20.9835 3.3999 18.7 5.68345 18.7 8.4999V56.0999C18.7 58.9164 20.9835 61.1999 23.8 61.1999ZM78.2 57.7999H23.8C22.8612 57.7999 22.1 57.0387 22.1 56.0999V16.9999H79.9V56.0999C79.9 57.0387 79.1388 57.7999 78.2 57.7999ZM23.8 6.7999H78.2C79.1388 6.7999 79.9 7.56108 79.9 8.4999V13.5999H22.1V8.4999C22.1 7.56108 22.8612 6.7999 23.8 6.7999Z" fill="white"/>
<path d="M25.5 8.5H28.9V11.9H25.5V8.5Z" fill="white"/>
<path d="M32.3 8.5H35.7V11.9H32.3V8.5Z" fill="white"/>
<path d="M39.1 8.5H42.5V11.9H39.1V8.5Z" fill="white"/>
<path d="M56.6221 34.571L51.1868 30.9403C50.1425 30.243 48.7986 30.1783 47.6921 30.7726C46.5857 31.3661 45.8967 32.5216 45.9 33.7775V41.0224C45.8967 42.2775 46.5857 43.4321 47.6921 44.0264C48.7978 44.6199 50.1409 44.556 51.1851 43.8596L56.6254 40.2371C57.5709 39.6063 58.1387 38.5454 58.1387 37.4082C58.1387 36.2719 57.5709 35.2102 56.6254 34.5793L56.6221 34.571ZM49.3 41.0348V33.7775L54.7403 37.3999L49.3 41.0348Z" fill="white"/>
<path d="M51 22.1001C42.5498 22.1001 35.7 28.9499 35.7 37.4001C35.7 45.8503 42.5498 52.7001 51 52.7001C59.4502 52.7001 66.3 45.8503 66.3 37.4001C66.29 28.9541 59.446 22.1101 51 22.1001ZM51 49.3001C44.4274 49.3001 39.1 43.9727 39.1 37.4001C39.1 30.8275 44.4274 25.5001 51 25.5001C57.5726 25.5001 62.9 30.8275 62.9 37.4001C62.8925 43.9693 57.5692 49.2926 51 49.3001Z" fill="white"/>
<path d="M45.9 68C43.7468 68.0091 41.831 69.3696 41.1129 71.4H30.6V74.8H41.1129C41.8227 76.837 43.7435 78.2017 45.9 78.2017C48.0565 78.2017 49.9773 76.837 50.6871 74.8H83.3V71.4H50.6871C49.969 69.3696 48.0532 68.0091 45.9 68ZM45.9 74.8C44.9612 74.8 44.2 74.0388 44.2 73.1C44.2 72.1612 44.9612 71.4 45.9 71.4C46.8388 71.4 47.6 72.1612 47.6 73.1C47.6 74.0388 46.8388 74.8 45.9 74.8Z" fill="white"/>
<path d="M23.8 69.7002H27.2V76.5002H23.8V69.7002Z" fill="white"/>
<path d="M18.7 69.7002H22.1V76.5002H18.7V69.7002Z" fill="white"/>
<path d="M27.2 35.7002H30.6V39.1002H27.2V35.7002Z" fill="white"/>
<path d="M27.2 28.8999H30.6V32.2999H27.2V28.8999Z" fill="white"/>
<path d="M27.2 42.5H30.6V45.9H27.2V42.5Z" fill="white"/>
</svg>
